<svg xmlns="http://www.w3.org/2000/svg" width="52" height="40" fill="none"><path d="m.807 1 .761.762c3.707 3.453 6.246 6.804 7.618 10.054.964 2.336 1.523 4.545 1.675 6.627v1.6c-1.675.406-3.174 1.27-4.494 2.59-1.93 1.93-2.894 4.316-2.894 7.16 0 2.793.965 5.18 2.894 7.16 1.93 1.93 4.266 2.895 7.008 2.895 2.438 0 4.773-.914 7.008-2.742 2.183-1.778 3.504-4.368 3.96-7.77.153-1.168.23-2.31.23-3.428 0-4.062-.991-8.049-2.971-11.959C17.895 6.688 13.273 2.473 7.738 1.305A21.393 21.393 0 0 0 3.396.848c-.812 0-1.675.05-2.59.152ZM28 1l.762.762c3.707 3.453 6.246 6.804 7.617 10.054.965 2.336 1.523 4.545 1.676 6.627v1.6c-1.676.406-3.174 1.27-4.495 2.59-1.93 1.93-2.894 4.316-2.894 7.16 0 2.793.965 5.18 2.894 7.16 1.93 1.93 4.266 2.895 7.008 2.895 2.438 0 4.774-.914 7.008-2.742 2.184-1.778 3.504-4.368 3.961-7.77a26.48 26.48 0 0 0 .229-3.428c0-4.062-.99-8.049-2.971-11.959-3.707-7.261-8.328-11.476-13.863-12.644A21.392 21.392 0 0 0 30.59.848c-.813 0-1.676.05-2.59.152Z" fill="#FDD231"/></svg>